# 3ds Max Wavefront OBJ Exporter v0.97b - (c)2007 guruware
# File Created: 05.06.2014 16:06:11

#
# object Object002
#

v  -12.9612 -4.0033 192.5373
v  -15.3601 -4.0033 192.5373
v  -12.9612 -3.7921 193.0466
v  -15.3601 -3.7921 193.0466
v  -15.3601 -3.3808 194.0695
v  -12.9612 -3.3808 194.0695
v  -15.3601 -3.5846 193.5573
v  -12.9612 -3.5846 193.5573
v  -15.3601 -12.3301 178.1434
v  -15.3601 -9.1487 182.6991
v  -12.9612 -12.3301 178.1434
v  -12.9612 -9.1487 182.6991
v  -12.9612 -6.3664 187.5086
v  -15.3601 -6.3664 187.5086
v  -15.3601 -2.8252 159.2141
v  -15.3601 -4.5103 164.2664
v  -12.9612 -2.8252 159.2141
v  -12.9612 -4.5103 164.2664
v  -15.3601 -9.2846 173.7745
v  -12.9612 -6.6700 169.1346
v  -15.3601 -6.6700 169.1346
v  -12.9612 -9.2846 173.7745
v  -15.3601 6.0715 178.4367
v  -15.3601 3.1668 173.9730
v  -12.9612 6.0715 178.4367
v  -12.9612 3.1668 173.9730
v  -15.3601 -1.3019 164.3176
v  -12.9612 0.7014 169.2521
v  -15.3601 0.7014 169.2521
v  -12.9612 -1.3019 164.3176
v  -15.3601 -2.7098 192.5579
v  -15.3601 -0.1876 187.6071
v  -12.9612 -2.7098 192.5579
v  -12.9612 -0.1876 187.6071
v  -12.9612 2.7466 182.8886
v  -15.3601 2.7466 182.8886
v  -12.9612 -3.1608 193.5640
v  -15.3601 -3.1608 193.5640
v  -15.3601 -2.9371 193.0602
v  -12.9612 -2.9371 193.0602
v  -15.3600 5.6813 38.1205
v  -15.3600 6.5488 51.0409
v  -12.9612 5.6813 38.1205
v  -12.9612 6.5488 51.0409
v  -15.3600 6.9670 76.9326
v  -12.9612 6.9775 63.9832
v  -15.3600 6.9775 63.9832
v  -12.9612 6.9670 76.9326
v  -15.3600 5.6289 102.7930
v  -12.9612 6.5173 89.8742
v  -15.3600 6.5173 89.8742
v  -12.9612 5.6289 102.7930
v  -15.3600 2.5405 128.5031
v  -12.9612 4.3029 115.6744
v  -15.3600 4.3029 115.6744
v  -12.9612 2.5405 128.5031
v  -15.3600 1.8893 134.0674
v  -12.9612 1.8893 134.0674
v  -15.3600 1.8256 145.2639
v  -12.9612 1.8256 145.2639
v  -15.3600 1.6506 139.6646
v  -15.3600 2.4136 150.8351
v  -12.9612 2.4136 150.8351
v  -12.9612 3.4113 156.3478
v  -15.3601 3.4113 156.3478
v  -12.9612 1.6506 139.6646
v  -15.3601 4.7535 161.2398
v  -12.9612 4.7535 161.2398
v  -15.3601 8.9139 170.4785
v  -12.9612 8.9139 170.4785
v  -15.3601 6.5943 165.9669
v  -15.3601 11.6876 174.7258
v  -12.9612 11.6876 174.7258
v  -12.9612 14.8856 178.6637
v  -15.3601 14.8856 178.6637
v  -12.9612 6.5943 165.9669
v  -15.3601 11.2963 182.7224
v  -12.9612 11.2963 182.7224
v  -15.3601 5.3408 191.7608
v  -12.9612 5.3408 191.7608
v  -15.3601 8.1052 187.1010
v  -12.9612 3.0274 196.6602
v  -15.3601 3.0274 196.6602
v  -15.3601 -0.1678 207.0019
v  -12.9612 1.1858 201.7556
v  -15.3601 1.1858 201.7556
v  -12.9612 -0.1678 207.0019
v  -12.9612 8.1052 187.1010
v  -15.3601 -1.2512 213.3417
v  -15.3601 -1.8747 219.7433
v  -12.9612 -1.8747 219.7433
v  -12.9612 -2.0353 226.1730
v  -15.3601 -2.0353 226.1730
v  -12.9612 -1.7319 232.5976
v  -15.3601 -1.7319 232.5976
v  -12.9612 -1.2512 213.3417
v  -15.3601 -1.8981 233.6593
v  -12.9612 -1.8981 233.6593
v  -15.3601 -3.4958 235.0044
v  -12.9612 -2.5334 234.5262
v  -15.3601 -2.5334 234.5262
v  -12.9612 -3.4958 235.0044
v  -15.3601 -5.5171 234.4786
v  -12.9612 -4.5704 234.9873
v  -15.3601 -4.5704 234.9873
v  -12.9612 -5.5171 234.4786
v  -15.3601 -6.2568 232.5255
v  -12.9612 -6.1244 233.5920
v  -15.3601 -6.1244 233.5920
v  -12.9612 -6.2568 232.5255
v  -15.3601 -5.7488 226.1138
v  -15.3601 -5.7043 219.6822
v  -12.9612 -5.7043 219.6823
v  -12.9612 -6.1235 213.2641
v  -15.3601 -6.1235 213.2641
v  -12.9612 -7.0043 206.8930
v  -15.3601 -7.0043 206.8930
v  -12.9612 -5.7488 226.1138
v  -15.3601 -8.1900 201.6061
v  -12.9612 -8.1900 201.6061
v  -15.3601 -12.0243 191.4841
v  -12.9612 -12.0243 191.4841
v  -15.3601 -9.8682 196.4547
v  -12.9612 -14.6388 186.7385
v  -15.3601 -14.6388 186.7385
v  -15.3601 -21.1469 178.0894
v  -12.9612 -17.6887 182.2604
v  -15.3601 -17.6887 182.2604
v  -12.9612 -21.1469 178.0894
v  -12.9612 -9.8682 196.4547
v  -15.3601 -17.8250 174.2554
v  -12.9612 -17.8250 174.2554
v  -15.3601 -12.4551 165.6633
v  -12.9612 -12.4551 165.6633
v  -15.3601 -14.9175 170.0986
v  -15.3601 -10.4647 160.9973
v  -12.9612 -10.4647 160.9973
v  -12.9612 -8.9672 156.1505
v  -15.3601 -8.9672 156.1505
v  -12.9612 -14.9175 170.0986
v  -15.3601 -7.7944 150.6724
v  -12.9612 -7.7944 150.6724
v  -15.3601 -6.6757 139.5319
v  -12.9612 -6.6757 139.5319
v  -15.3600 -7.0291 145.1228
v  -15.3601 -6.7360 133.9300
v  -12.9612 -6.7360 133.9300
v  -12.9612 -7.2096 128.3477
v  -15.3600 -7.2096 128.3477
v  -12.9612 -7.0291 145.1228
v  -15.3600 -8.5621 115.4693
v  -12.9612 -8.5621 115.4693
v  -15.3600 -9.9533 89.6116
v  -12.9612 -9.4770 102.5522
v  -15.3600 -9.4770 102.5522
v  -12.9612 -9.9533 89.6116
v  -15.3600 -9.5880 63.7191
v  -12.9612 -9.9902 76.6624
v  -15.3600 -9.9902 76.6624
v  -12.9612 -9.5880 63.7191
v  -15.3600 -7.4682 37.9108
v  -12.9612 -8.7471 50.7971
v  -15.3600 -8.7471 50.7971
v  -12.9612 -7.4682 37.9108
v  -15.3600 -7.2202 33.8559
v  -12.9612 -7.2202 33.8559
v  -15.3600 -8.0566 25.7861
v  -12.9612 -7.4172 29.7982
v  -15.3600 -7.4172 29.7982
v  -12.9612 -8.0566 25.7861
v  -15.3600 -10.6277 18.0912
v  -12.9612 -9.1311 21.8680
v  -15.3600 -9.1311 21.8680
v  -12.9612 -10.6277 18.0912
v  -15.3600 -14.8101 11.1393
v  -12.9612 -12.5283 14.5005
v  -15.3600 -12.5283 14.5005
v  -12.9612 -14.8101 11.1393
v  -15.3600 -16.4913 8.4883
v  -12.9612 -16.4913 8.4883
v  -15.3600 -18.3809 2.5254
v  -12.9612 -17.6933 5.5882
v  -15.3600 -17.6933 5.5882
v  -12.9612 -18.3809 2.5254
v  -15.3600 -18.1472 -3.7252
v  -12.9612 -18.5337 -0.6099
v  -15.3600 -18.5337 -0.6099
v  -12.9612 -18.1472 -3.7252
v  -15.3600 -15.8172 -9.5305
v  -12.9612 -17.2325 -6.7285
v  -15.3600 -17.2325 -6.7285
v  -12.9612 -15.8172 -9.5305
v  -15.3600 -11.6646 -14.2082
v  -12.9612 -13.9427 -12.0483
v  -15.3600 -13.9427 -12.0483
v  -12.9612 -11.6646 -14.2082
v  -15.3600 -6.1767 -17.2097
v  -12.9612 -9.0501 -15.9459
v  -15.3600 -9.0501 -15.9459
v  -12.9612 -6.1767 -17.2097
v  -15.3600 0.0023 -18.1828
v  -12.9612 0.0023 -18.1828
v  -15.3600 -3.1292 -17.9629
v  -12.9612 3.1252 -17.8632
v  -15.3600 3.1252 -17.8632
v  -15.3600 8.9788 -15.6585
v  -12.9612 6.1471 -17.0132
v  -15.3600 6.1471 -17.0132
v  -12.9612 8.9788 -15.6585
v  -15.3600 13.7447 -11.6071
v  -12.9612 11.5366 -13.8384
v  -15.3600 11.5366 -13.8384
v  -12.9612 13.7447 -11.6071
v  -15.3600 16.8634 -6.1851
v  -12.9612 15.5379 -9.0307
v  -15.3600 15.5379 -9.0307
v  -12.9612 16.8634 -6.1851
v  -15.3600 17.9689 -0.0280
v  -12.9612 17.6817 -3.1542
v  -15.3600 17.6817 -3.1542
v  -12.9612 17.9689 -0.0280
v  -15.3600 16.9315 6.1401
v  -12.9612 17.7162 3.1008
v  -15.3600 17.7162 3.1008
v  -12.9612 16.9315 6.1401
v  -15.3600 13.8727 11.5966
v  -12.9612 15.6375 9.0003
v  -15.3600 15.6375 9.0003
v  -12.9612 13.8727 11.5966
v  -12.9612 -3.1292 -17.9629
v  -15.3600 11.4850 14.8833
v  -12.9612 11.4850 14.8833
v  -15.3600 7.8547 22.1388
v  -12.9612 9.4709 18.4116
v  -15.3600 9.4709 18.4116
v  -12.9612 7.8547 22.1388
v  -15.3600 5.8889 30.0104
v  -12.9612 6.6560 26.0207
v  -15.3600 6.6560 26.0207
v  -12.9612 5.8889 30.0104
v  -12.9612 5.5627 34.0596
v  -15.3600 5.5627 34.0596
# 242 vertices

vn 0.0000 0.9146 -0.4043
vn 0.0000 0.9251 -0.3797
vn 0.0000 0.9291 -0.3698
vn 0.0000 0.9278 -0.3731
vn 0.0000 0.8199 -0.5725
vn 0.0000 0.8435 -0.5371
vn 0.0000 0.8861 -0.4635
vn 0.0000 0.9486 0.3164
vn 0.0000 0.9324 0.3614
vn 0.0000 0.8467 0.5320
vn 0.0000 0.8937 0.4487
vn 0.0000 0.8203 0.5719
vn -0.0000 -0.8382 0.5454
vn -0.0000 -0.8633 0.5047
vn -0.0000 -0.9435 0.3315
vn -0.0000 -0.9075 0.4200
vn -0.0000 -0.9582 0.2860
vn -0.0000 -0.9013 -0.4332
vn -0.0000 -0.8709 -0.4915
vn -0.0000 -0.8012 -0.5984
vn -0.0000 -0.8260 -0.5637
vn -0.0000 -0.9170 -0.3990
vn -0.0000 -0.9155 -0.4024
vn -0.0000 -0.9125 -0.4091
vn 0.0000 0.9988 -0.0481
vn 0.0000 0.9987 -0.0501
vn 0.0000 0.9998 0.0178
vn 0.0000 0.9999 -0.0162
vn 0.0000 0.9963 0.0855
vn 0.0000 0.9987 0.0517
vn 0.0000 0.9920 0.1262
vn 0.0000 0.9929 0.1193
vn 0.0000 0.9968 0.0795
vn 0.0000 0.9977 -0.0681
vn 0.0000 1.0000 0.0057
vn 0.0000 0.9899 -0.1416
vn 0.0000 0.9751 -0.2216
vn 0.0000 0.9494 -0.3142
vn 0.0000 0.8645 -0.5027
vn 0.0000 0.9118 -0.4106
vn 0.0000 0.8079 -0.5894
vn 0.0000 0.7763 -0.6304
vn 0.0000 0.7491 0.6625
vn 0.0000 0.8831 0.4691
vn 0.0000 0.8350 0.5502
vn 0.0000 0.9234 0.3839
vn 0.0000 0.9778 0.2093
vn 0.0000 0.9554 0.2952
vn 0.0000 0.8082 0.5890
vn 0.0000 0.9911 0.1328
vn 0.0000 0.9981 0.0610
vn 0.0000 0.9999 -0.0111
vn 0.0000 0.9985 0.0540
vn 0.0000 0.9880 0.1547
vn -0.0000 0.4450 0.8955
vn -0.0000 -0.4733 0.8809
vn -0.0000 -0.9998 0.0222
vn -0.0000 -0.9924 0.1232
vn -0.0000 -0.8250 0.5651
vn -0.0000 -0.0159 0.9999
vn 0.0000 0.8066 0.5911
vn -0.0000 -0.9991 -0.0430
vn -0.0000 -0.9996 0.0292
vn -0.0000 -0.9949 0.1011
vn -0.0000 -0.9840 0.1780
vn -0.0000 -0.9644 0.2646
vn -0.0000 -0.8976 0.4407
vn -0.0000 -0.9352 0.3542
vn -0.0000 -0.8521 0.5233
vn -0.0000 -0.7698 0.6383
vn -0.0000 -0.7991 0.6013
vn -0.0000 -0.7558 -0.6548
vn -0.0000 -0.8983 -0.4395
vn -0.0000 -0.8480 -0.5300
vn -0.0000 -0.9389 -0.3442
vn -0.0000 -0.9676 -0.2525
vn -0.0000 -0.8194 -0.5732
vn -0.0000 -0.9849 -0.1731
vn -0.0000 -0.9997 -0.0262
vn -0.0000 -0.9950 -0.0999
vn -0.0000 -0.9989 0.0477
vn -0.0000 -0.9955 0.0945
vn -0.0000 -0.9962 0.0876
vn -0.0000 -0.9998 0.0198
vn -0.0000 -0.9986 0.0537
vn -0.0000 -0.9988 -0.0480
vn -0.0000 -0.9999 -0.0141
vn -0.0000 -0.9968 -0.0799
vn -0.0000 -0.9966 -0.0819
vn -0.0000 -1.0000 -0.0063
vn -0.0000 -0.9774 0.2112
vn -0.0000 -0.9947 0.1031
vn -0.0000 -0.9081 0.4187
vn -0.0000 -0.9485 0.3169
vn -0.0000 -0.8360 0.5487
vn -0.0000 -0.8569 0.5155
vn -0.0000 -0.8874 0.4609
vn -0.0000 -0.9909 0.1344
vn -0.0000 -0.9533 0.3021
vn -0.0000 -0.9781 -0.2080
vn -0.0000 -0.9993 -0.0374
vn -0.0000 -0.8505 -0.5260
vn -0.0000 -0.9280 -0.3725
vn 0.0000 -0.6231 -0.7822
vn 0.0000 -0.6880 -0.7257
vn 0.0000 -0.3225 -0.9466
vn 0.0000 -0.4798 -0.8774
vn 0.0000 0.0159 -0.9999
vn 0.0000 -0.1556 -0.9878
vn 0.0000 0.1870 -0.9824
vn 0.0000 0.5076 -0.8616
vn 0.0000 0.3525 -0.9358
vn 0.0000 0.7686 -0.6397
vn 0.0000 0.7108 -0.7034
vn 0.0000 0.9394 -0.3427
vn 0.0000 0.8668 -0.4986
vn 0.0000 1.0000 -0.0055
vn 0.0000 0.9843 -0.1767
vn 0.0000 0.9432 0.3323
vn 0.0000 0.9861 0.1659
vn 0.0000 0.8181 0.5750
vn 0.0000 0.8723 0.4890
vn 0.0000 0.5798 -0.8148
vn -0.0000 -0.8021 -0.5972
vn 0.0000 0.8400 0.5426
vn 0.0000 0.9379 0.3470
vn 0.0000 0.8943 0.4475
vn 0.0000 0.9909 0.1348
vn 0.0000 0.9702 0.2423
vn 0.0000 0.9997 0.0256
vn -1.0000 0.0000 -0.0000
vn -1.0000 -0.0000 -0.0000
vn -1.0000 -0.0000 0.0000
vn -1.0000 0.0000 0.0000
vn 1.0000 -0.0000 0.0000
vn 1.0000 -0.0000 -0.0000
vn 1.0000 0.0000 -0.0000
vn 1.0000 0.0000 0.0000
# 138 vertex normals

g Object002
f 1//1 2//1 3//2 
f 2//1 4//2 3//2 
f 5//3 6//3 7//4 
f 6//3 8//4 7//4 
f 8//4 3//2 7//4 
f 3//2 4//2 7//4 
f 9//5 10//6 11//5 
f 11//5 10//6 12//6 
f 2//1 13//7 14//7 
f 2//1 1//1 13//7 
f 13//7 12//6 14//7 
f 14//7 12//6 10//6 
f 15//8 16//9 17//8 
f 17//8 16//9 18//9 
f 19//10 20//11 21//11 
f 20//11 19//10 22//10 
f 11//12 22//10 9//12 
f 9//12 22//10 19//10 
f 20//11 18//9 21//11 
f 21//11 18//9 16//9 
f 23//13 24//14 25//13 
f 25//13 24//14 26//14 
f 27//15 28//16 29//16 
f 28//16 27//15 30//15 
f 17//17 30//15 15//17 
f 15//17 30//15 27//15 
f 28//16 26//14 29//16 
f 29//16 26//14 24//14 
f 31//18 32//19 33//18 
f 33//18 32//19 34//19 
f 23//20 35//21 36//21 
f 23//20 25//20 35//21 
f 35//21 34//19 36//21 
f 36//21 34//19 32//19 
f 6//22 5//22 37//23 
f 5//22 38//23 37//23 
f 31//18 33//18 39//24 
f 33//18 40//24 39//24 
f 40//24 37//23 39//24 
f 37//23 38//23 39//24 
f 41//25 42//26 43//25 
f 43//25 42//26 44//26 
f 45//27 46//28 47//28 
f 46//28 45//27 48//27 
f 49//29 50//30 51//30 
f 50//30 49//29 52//29 
f 53//31 54//32 55//32 
f 53//31 56//31 54//32 
f 54//32 52//29 55//32 
f 55//32 52//29 49//29 
f 50//30 48//27 51//30 
f 51//30 48//27 45//27 
f 46//28 44//26 47//28 
f 47//28 44//26 42//26 
f 53//31 57//33 56//31 
f 56//31 57//33 58//33 
f 59//34 60//34 61//35 
f 59//34 62//36 60//34 
f 60//34 62//36 63//36 
f 64//37 63//36 65//37 
f 65//37 63//36 62//36 
f 60//34 66//35 61//35 
f 66//35 58//33 61//35 
f 61//35 58//33 57//33 
f 65//37 67//38 64//37 
f 64//37 67//38 68//38 
f 69//39 70//39 71//40 
f 69//39 72//41 70//39 
f 70//39 72//41 73//41 
f 74//42 73//41 75//42 
f 75//42 73//41 72//41 
f 70//39 76//40 71//40 
f 76//40 68//38 71//40 
f 71//40 68//38 67//38 
f 75//43 77//43 74//43 
f 74//43 77//43 78//43 
f 79//44 80//44 81//45 
f 80//44 79//44 82//46 
f 79//44 83//46 82//46 
f 84//47 85//48 86//48 
f 84//47 87//47 85//48 
f 85//48 82//46 86//48 
f 80//44 88//45 81//45 
f 88//45 78//49 81//45 
f 81//45 78//49 77//49 
f 82//46 83//46 86//48 
f 84//47 89//50 87//47 
f 90//51 91//51 89//50 
f 91//51 90//51 92//52 
f 90//51 93//52 92//52 
f 94//53 92//52 95//53 
f 91//51 96//50 89//50 
f 96//50 87//47 89//50 
f 92//52 93//52 95//53 
f 95//53 97//54 94//53 
f 94//53 97//54 98//54 
f 99//55 100//55 101//55 
f 100//55 99//55 102//55 
f 103//56 104//56 105//56 
f 104//56 103//56 106//56 
f 107//57 108//58 109//58 
f 107//57 110//57 108//58 
f 108//59 106//59 109//59 
f 109//59 106//59 103//59 
f 104//60 102//60 105//60 
f 105//60 102//60 99//60 
f 100//61 98//61 101//61 
f 101//61 98//61 97//61 
f 107//57 111//62 110//57 
f 112//63 113//63 111//62 
f 113//63 112//63 114//64 
f 112//63 115//64 114//64 
f 116//65 114//64 117//65 
f 113//63 118//62 111//62 
f 118//62 110//57 111//62 
f 114//64 115//64 117//65 
f 117//65 119//66 116//65 
f 116//65 119//66 120//66 
f 121//67 122//67 123//68 
f 122//67 121//67 124//69 
f 121//67 125//69 124//69 
f 126//70 127//71 128//71 
f 126//70 129//70 127//71 
f 127//71 124//69 128//71 
f 122//67 130//68 123//68 
f 130//68 120//66 123//68 
f 123//68 120//66 119//66 
f 124//69 125//69 128//71 
f 126//72 131//72 129//72 
f 129//72 131//72 132//72 
f 133//73 134//73 135//74 
f 133//73 136//75 134//73 
f 134//73 136//75 137//75 
f 138//76 137//75 139//76 
f 139//76 137//75 136//75 
f 134//73 140//74 135//74 
f 140//74 132//77 135//74 
f 135//74 132//77 131//77 
f 139//76 141//78 138//76 
f 138//76 141//78 142//78 
f 143//79 144//79 145//80 
f 143//79 146//81 144//79 
f 144//79 146//81 147//81 
f 148//82 147//81 149//82 
f 149//82 147//81 146//81 
f 144//79 150//80 145//80 
f 150//80 142//78 145//80 
f 145//80 142//78 141//78 
f 149//82 151//83 148//82 
f 148//82 151//83 152//83 
f 153//84 154//85 155//85 
f 154//85 153//84 156//84 
f 157//86 158//87 159//87 
f 158//87 157//86 160//86 
f 161//88 162//89 163//89 
f 161//88 164//88 162//89 
f 162//89 160//86 163//89 
f 163//89 160//86 157//86 
f 158//87 156//84 159//87 
f 159//87 156//84 153//84 
f 154//85 152//83 155//85 
f 155//85 152//83 151//83 
f 161//88 165//90 164//88 
f 164//88 165//90 166//90 
f 167//91 168//92 169//92 
f 168//92 167//91 170//91 
f 171//93 172//94 173//94 
f 172//94 171//93 174//93 
f 175//95 176//96 177//96 
f 175//95 178//95 176//96 
f 176//96 174//93 177//96 
f 177//96 174//93 171//93 
f 172//94 170//91 173//94 
f 173//94 170//91 167//91 
f 168//92 166//90 169//92 
f 169//92 166//90 165//90 
f 175//95 179//97 178//95 
f 178//95 179//97 180//97 
f 181//98 182//99 183//99 
f 182//99 181//98 184//98 
f 185//100 186//101 187//101 
f 186//101 185//100 188//100 
f 189//102 190//103 191//103 
f 190//103 189//102 192//102 
f 193//104 194//105 195//105 
f 194//105 193//104 196//104 
f 197//106 198//107 199//107 
f 198//107 197//106 200//106 
f 201//108 202//108 203//109 
f 202//108 201//108 204//110 
f 201//108 205//110 204//110 
f 206//111 207//112 208//112 
f 207//112 206//111 209//111 
f 210//113 211//114 212//114 
f 211//114 210//113 213//113 
f 214//115 215//116 216//116 
f 215//116 214//115 217//115 
f 218//117 219//118 220//118 
f 219//118 218//117 221//117 
f 222//119 223//120 224//120 
f 223//120 222//119 225//119 
f 226//121 227//122 228//122 
f 226//121 229//121 227//122 
f 227//122 225//119 228//122 
f 228//122 225//119 222//119 
f 223//120 221//117 224//120 
f 224//120 221//117 218//117 
f 219//118 217//115 220//118 
f 220//118 217//115 214//115 
f 215//116 213//113 216//116 
f 216//116 213//113 210//113 
f 211//123 209//111 212//123 
f 212//123 209//111 206//111 
f 207//112 204//110 208//112 
f 202//108 230//109 203//109 
f 230//109 200//106 203//109 
f 203//109 200//106 197//106 
f 198//107 196//104 199//107 
f 199//107 196//104 193//104 
f 194//124 192//102 195//124 
f 195//124 192//102 189//102 
f 190//103 188//100 191//103 
f 191//103 188//100 185//100 
f 186//101 184//98 187//101 
f 187//101 184//98 181//98 
f 182//99 180//97 183//99 
f 183//99 180//97 179//97 
f 204//110 205//110 208//112 
f 226//121 231//125 229//121 
f 229//121 231//125 232//125 
f 233//126 234//127 235//127 
f 234//127 233//126 236//126 
f 237//128 238//129 239//129 
f 238//129 237//128 240//128 
f 41//25 241//130 242//130 
f 41//25 43//25 241//130 
f 241//130 240//128 242//130 
f 242//130 240//128 237//128 
f 238//129 236//126 239//129 
f 239//129 236//126 233//126 
f 234//127 232//125 235//127 
f 235//127 232//125 231//125 
f 7//131 115//131 5//131 
f 7//131 4//131 115//131 
f 4//131 2//131 115//131 
f 115//132 2//132 117//132 
f 10//131 119//131 14//131 
f 9//131 121//131 10//131 
f 19//131 136//131 9//131 
f 136//132 19//132 139//132 
f 16//132 145//132 21//132 
f 145//132 16//132 143//132 
f 27//131 61//131 15//131 
f 61//131 27//131 59//131 
f 24//131 65//131 29//131 
f 65//131 24//131 67//131 
f 36//131 79//131 23//131 
f 32//131 86//131 36//131 
f 86//132 32//132 84//132 
f 39//131 89//131 31//131 
f 39//131 38//131 89//131 
f 38//133 5//133 89//133 
f 55//131 151//131 53//131 
f 151//131 55//131 155//131 
f 51//131 163//131 49//131 
f 51//131 45//131 163//131 
f 45//131 47//131 163//131 
f 47//131 42//131 163//131 
f 42//131 41//131 163//131 
f 163//131 41//131 161//131 
f 237//131 205//131 242//131 
f 205//131 237//131 208//131 
f 237//131 239//131 208//131 
f 235//131 206//131 233//131 
f 206//132 235//132 212//132 
f 226//132 210//132 231//132 
f 210//131 226//131 216//131 
f 222//132 214//132 228//132 
f 214//132 222//132 220//132 
f 218//131 220//131 224//131 
f 224//131 220//131 222//131 
f 214//131 216//131 228//131 
f 228//131 216//131 226//131 
f 210//131 212//131 231//131 
f 231//131 212//131 235//131 
f 206//131 208//131 233//131 
f 205//131 201//131 242//131 
f 242//131 201//131 165//131 
f 242//131 165//131 161//131 
f 242//134 161//134 41//134 
f 197//131 169//131 203//131 
f 199//131 173//131 197//131 
f 173//132 199//132 171//132 
f 195//132 177//132 193//132 
f 177//131 195//131 175//131 
f 191//131 179//131 189//131 
f 179//131 191//131 183//131 
f 187//131 181//131 185//131 
f 181//131 183//131 185//131 
f 185//131 183//131 191//131 
f 179//131 175//131 189//131 
f 189//131 175//131 195//131 
f 177//131 171//131 193//131 
f 193//131 171//131 199//131 
f 173//132 167//132 197//132 
f 167//131 169//131 197//131 
f 169//131 165//131 203//131 
f 163//131 157//131 49//131 
f 157//131 159//131 49//131 
f 159//131 153//131 49//131 
f 153//131 155//131 49//131 
f 49//131 155//131 55//131 
f 151//131 149//131 53//131 
f 53//131 149//131 57//131 
f 143//133 15//133 146//133 
f 15//131 143//131 16//131 
f 145//131 141//131 21//131 
f 141//131 139//131 21//131 
f 21//131 139//131 19//131 
f 136//131 133//131 9//131 
f 133//131 135//131 9//131 
f 131//132 128//132 135//132 
f 131//131 126//131 128//131 
f 128//134 125//134 135//134 
f 135//134 125//134 9//134 
f 121//131 123//131 10//131 
f 123//131 119//131 10//131 
f 119//131 117//131 14//131 
f 14//131 117//131 2//131 
f 115//131 112//131 5//131 
f 5//131 112//131 90//131 
f 5//131 90//131 89//131 
f 107//131 109//131 111//131 
f 109//131 103//131 111//131 
f 103//131 105//131 111//131 
f 111//131 105//131 93//131 
f 111//131 93//131 90//131 
f 111//131 90//131 112//131 
f 105//132 99//132 93//132 
f 99//134 101//134 93//134 
f 95//134 93//134 97//134 
f 89//131 84//131 31//131 
f 31//132 84//132 32//132 
f 86//131 83//131 36//131 
f 83//132 79//132 36//132 
f 79//132 81//132 23//132 
f 23//132 81//132 69//132 
f 23//132 69//132 71//132 
f 23//132 71//132 67//132 
f 23//131 67//131 24//131 
f 75//131 72//131 77//131 
f 72//131 69//131 77//131 
f 65//131 62//131 29//131 
f 62//131 59//131 29//131 
f 29//131 59//131 27//131 
f 61//131 57//131 15//131 
f 93//134 101//134 97//134 
f 77//131 69//131 81//131 
f 121//132 9//132 125//132 
f 203//132 165//132 201//132 
f 149//131 146//131 57//131 
f 146//131 15//131 57//131 
f 233//132 208//132 239//132 
f 3//135 114//135 1//135 
f 3//135 8//135 114//135 
f 8//136 6//136 114//136 
f 37//137 96//137 6//137 
f 37//135 40//135 96//135 
f 40//135 33//135 96//135 
f 96//135 33//135 87//135 
f 35//135 85//135 34//135 
f 25//138 80//138 35//138 
f 26//135 68//135 25//135 
f 68//135 26//135 64//135 
f 30//135 60//135 28//135 
f 60//135 30//135 66//135 
f 18//135 144//135 17//135 
f 144//138 18//138 150//138 
f 22//135 138//135 20//135 
f 138//138 22//138 137//138 
f 12//135 122//135 11//135 
f 13//135 120//135 12//135 
f 120//135 13//135 116//135 
f 232//138 213//138 229//138 
f 213//135 232//135 211//135 
f 236//135 209//135 234//135 
f 209//135 236//135 207//135 
f 236//138 238//138 207//138 
f 241//135 204//135 240//135 
f 43//136 164//136 241//136 
f 164//136 43//136 162//136 
f 43//135 44//135 162//135 
f 44//135 46//135 162//135 
f 46//138 48//138 162//138 
f 48//135 50//135 162//135 
f 54//135 154//135 52//135 
f 154//135 54//135 152//135 
f 58//136 148//136 56//136 
f 66//135 17//135 58//135 
f 17//135 66//135 30//135 
f 60//138 63//138 28//138 
f 63//135 64//135 28//135 
f 28//135 64//135 26//135 
f 68//138 76//138 25//138 
f 76//138 70//138 25//138 
f 73//137 78//137 70//137 
f 73//137 74//137 78//137 
f 78//135 88//135 70//135 
f 70//138 88//138 25//138 
f 80//138 82//138 35//138 
f 82//135 85//135 35//135 
f 85//138 87//138 34//138 
f 34//138 87//138 33//138 
f 96//138 91//138 6//138 
f 92//135 118//135 91//135 
f 94//136 98//136 92//136 
f 98//136 100//136 92//136 
f 100//136 102//136 92//136 
f 102//135 104//135 92//135 
f 92//135 104//135 118//135 
f 104//136 106//136 118//136 
f 110//138 118//138 108//138 
f 118//135 113//135 91//135 
f 91//135 113//135 6//135 
f 114//135 116//135 1//135 
f 1//135 116//135 13//135 
f 120//135 130//135 12//135 
f 130//135 122//135 12//135 
f 122//138 124//138 11//138 
f 11//137 124//137 140//137 
f 11//135 140//135 134//135 
f 11//138 134//138 137//138 
f 11//135 137//135 22//135 
f 129//135 132//135 127//135 
f 132//138 140//138 127//138 
f 138//135 142//135 20//135 
f 142//138 150//138 20//138 
f 20//138 150//138 18//138 
f 144//135 147//135 17//135 
f 17//135 147//135 58//135 
f 148//135 152//135 56//135 
f 56//135 152//135 54//135 
f 154//135 156//135 52//135 
f 156//135 158//135 52//135 
f 158//135 160//135 52//135 
f 160//135 162//135 52//135 
f 164//135 166//135 241//135 
f 168//135 230//135 166//135 
f 230//135 168//135 200//135 
f 168//135 170//135 200//135 
f 174//138 198//138 172//138 
f 198//135 174//135 196//135 
f 178//135 194//135 176//135 
f 194//135 178//135 192//135 
f 182//135 190//135 180//135 
f 190//135 182//135 188//135 
f 186//138 188//138 184//138 
f 184//135 188//135 182//135 
f 190//138 192//138 180//138 
f 180//135 192//135 178//135 
f 194//138 196//138 176//138 
f 176//135 196//135 174//135 
f 198//135 200//135 172//135 
f 230//138 202//138 166//138 
f 166//135 202//135 241//135 
f 204//135 207//135 240//135 
f 209//138 211//138 234//138 
f 234//135 211//135 232//135 
f 213//135 215//135 229//135 
f 229//135 215//135 227//135 
f 219//135 225//135 217//135 
f 221//135 223//135 219//135 
f 223//135 225//135 219//135 
f 225//135 227//135 217//135 
f 217//135 227//135 215//135 
f 118//137 106//137 108//137 
f 80//135 25//135 88//135 
f 114//135 6//135 113//135 
f 127//136 140//136 124//136 
f 162//135 50//135 52//135 
f 204//135 241//135 202//135 
f 58//135 147//135 148//135 
f 207//135 238//135 240//135 
f 200//138 170//138 172//138 
# 484 faces

